<?xml version="1.0" standalone="no"?>
<!DOCTYPE svg PUBLIC "-//W3C//DTD SVG 20010904//EN"
 "http://www.w3.org/TR/2001/REC-SVG-20010904/DTD/svg10.dtd">
<svg version="1.0" xmlns="http://www.w3.org/2000/svg"
 width="60.000000pt" height="60.000000pt" viewBox="0 0 60.000000 60.000000"
 preserveAspectRatio="xMidYMid meet">

<g transform="translate(0.000000,60.000000) scale(0.100000,-0.100000)"
fill="#000000" stroke="none">
<path d="M155 550 c-11 -18 10 -32 41 -28 40 4 38 32 -3 36 -17 2 -34 -2 -38
-8z"/>
<path d="M474 528 c-16 -18 -36 -41 -43 -50 -15 -21 -6 -58 15 -58 8 0 13 -4
10 -8 -2 -4 0 -14 5 -22 13 -20 32 6 59 78 34 90 10 120 -46 60z m11 -58 c-3
-5 -12 -10 -18 -10 -7 0 -6 4 3 10 19 12 23 12 15 0z"/>
<path d="M160 454 c0 -15 -12 -38 -30 -56 -50 -50 -42 -58 60 -58 102 0 110 8
60 58 -18 18 -30 41 -30 56 0 22 -4 26 -30 26 -26 0 -30 -4 -30 -26z"/>
<path d="M300 463 c-14 -9 -27 -18 -29 -19 -1 -1 7 -13 19 -26 12 -13 24 -35
27 -50 5 -27 8 -28 65 -28 53 0 58 2 49 18 -18 31 -86 115 -96 119 -6 2 -22
-4 -35 -14z"/>
<path d="M65 289 c-10 -15 5 -27 40 -31 38 -4 41 -32 4 -36 -24 -3 -27 -9 -38
-72 -7 -38 -10 -74 -6 -80 9 -14 461 -14 470 0 4 6 1 42 -6 80 l-12 69 -146 3
c-122 3 -146 5 -146 18 0 12 26 16 155 20 129 4 155 8 155 20 0 13 -34 15
-232 18 -161 2 -234 -1 -238 -9z"/>
</g>
</svg>
